# xmcd
#
# Track frame offsets: 
#        150
#        18377
#        40413
#        56512
#        74531
#        96246
#        114109
#        135706
#        153440
#        173063
#        189440
#        208342
#
# Disc length: 2993 seconds
#
# Revision: 1
# Processed by: cddbd v1.5.2PL0 Copyright (c) Steve Scherf et al.
# Submitted via: ExactAudioCopyFreeDBPlugin 1.0
#
DISCID=a60baf0c
DTITLE=陳綺貞 - 時間的歌
DYEAR=2013
DGENRE=Pop
TTITLE0=時間的歌
TTITLE1=漣漪
TTITLE2=柏拉圖式的愛情
TTITLE3=Peace and Revolution
TTITLE4=雨水一盒
TTITLE5=秋天蒙太奇
TTITLE6=流浪者的歌
TTITLE7=倒數
TTITLE8=沙漏
TTITLE9=普魯斯特行動
TTITLE10=別送我回家
TTITLE11=家
EXTD=
EXTT0=
EXTT1=
EXTT2=
EXTT3=
EXTT4=
EXTT5=
EXTT6=
EXTT7=
EXTT8=
EXTT9=
EXTT10=
EXTT11=
PLAYORDER=
